<svg xmlns="http://www.w3.org/2000/svg" width="38" height="38" viewBox="0 0 38 38"><defs><filter id="np8jt1ufba"><feFlood flood-color="#fff" flood-opacity="1" result="floodOut"></feFlood><feComposite operator="atop" in="floodOut" in2="SourceGraphic" result="compOut"></feComposite><feBlend in="compOut" in2="SourceGraphic"></feBlend></filter></defs><g filter="url(#np8jt1ufba)"><path fill-rule="evenodd" fill="#8F8F8F" d="M37.577 27.063c-.089 1.977-.404 3.328-.863 4.51a9.154 9.154 0 0 1-2.145 3.295 9.162 9.162 0 0 1-3.295 2.146c-1.182.458-2.534.774-4.514.864-1.983.091-2.616.11-7.666.11-5.049 0-5.683-.019-7.666-.11-1.979-.09-3.331-.406-4.513-.864a9.164 9.164 0 0 1-3.293-2.146 9.128 9.128 0 0 1-2.145-3.295c-.46-1.182-.776-2.533-.864-4.51C.523 25.076.5 24.445.5 19.394c0-5.049.023-5.682.113-7.667.088-1.978.404-3.327.864-4.513a9.117 9.117 0 0 1 2.145-3.292c1.033-1.037 2.071-1.669 3.293-2.144 1.182-.462 2.534-.777 4.513-.865 1.983-.091 2.617-.11 7.666-.11 5.05 0 5.683.019 7.666.11 1.98.088 3.332.403 4.514.865 1.224.475 2.261 1.107 3.295 2.144a9.144 9.144 0 0 1 2.145 3.292c.459 1.186.774 2.535.863 4.513.09 1.985.111 2.618.111 7.667 0 5.051-.021 5.682-.111 7.669zM34.23 11.882c-.083-1.812-.386-2.796-.64-3.453a5.783 5.783 0 0 0-1.391-2.14 5.786 5.786 0 0 0-2.139-1.392c-.653-.252-1.639-.554-3.451-.639-1.961-.089-2.551-.109-7.515-.109-4.963 0-5.552.02-7.513.109-1.813.085-2.798.387-3.452.639A5.77 5.77 0 0 0 5.99 6.289a5.783 5.783 0 0 0-1.391 2.14c-.253.657-.557 1.641-.64 3.453-.088 1.957-.108 2.55-.108 7.512 0 4.966.02 5.555.108 7.514.083 1.813.387 2.797.64 3.454.338.868.74 1.486 1.393 2.137a5.693 5.693 0 0 0 2.137 1.39c.654.256 1.639.56 3.452.642 1.959.09 2.55.108 7.513.108 4.964 0 5.554-.018 7.515-.108 1.812-.082 2.798-.386 3.451-.642a5.732 5.732 0 0 0 2.139-1.39 5.764 5.764 0 0 0 1.391-2.137c.254-.657.557-1.641.64-3.454.09-1.959.11-2.548.11-7.514 0-4.962-.02-5.555-.11-7.512zm-5.21-.183a2.231 2.231 0 1 1 0-4.462 2.231 2.231 0 0 1 0 4.462zm-9.926 17.245a9.547 9.547 0 0 1-9.548-9.55 9.548 9.548 0 0 1 9.548-9.548c5.274 0 9.549 4.274 9.549 9.548a9.547 9.547 0 0 1-9.549 9.55zm0-15.747a6.197 6.197 0 0 0 0 12.394 6.197 6.197 0 1 0 0-12.394z"></path></g></svg>