<svg xmlns="http://www.w3.org/2000/svg" width="43" height="40" viewBox="0 0 43 40"><path fill-rule="evenodd" fill="#fff" d="M21.102 33.661c-1.254 0-3.675-.253-3.675-.253l-9.054 5.881c-.346.224-.794-.07-.719-.471l1.524-8.05C3.65 27.789.025 22.8.025 17.147.025 8.027 9.461.632 21.102.632c11.641 0 21.077 7.395 21.077 16.515 0 9.123-9.436 16.514-21.077 16.514zm-8.536-21.119H6.492c-.57 0-1.034.463-1.034 1.027 0 .565.464 1.028 1.034 1.028h1.974v7.226a1.011 1.011 0 0 0 1.008 1.003h.221a1.014 1.014 0 0 0 1.007-1.003v-7.226h1.864c.571 0 1.035-.463 1.035-1.028 0-.564-.464-1.027-1.035-1.027zm8.478 8.956-3.027-8.223s-.006-.006-.011-.008c-.192-.501-.753-.867-1.418-.867-.164 0-.328.022-.486.067a1.523 1.523 0 0 0-.744.476 1.061 1.061 0 0 0-.156.243c-.038.077-.185.495-.235.627a7.421 7.421 0 0 1-.051.135l-.062.167c-.023.064-.048.122-.07.187l-.079.211c-.03.076-.058.154-.087.232l-.095.253-.101.265c-.035.096-.071.186-.106.283-.037.097-.074.196-.11.296l-.115.307-.118.313c-.04.106-.079.216-.121.32l-.121.325c-.042.108-.083.217-.124.33-.04.109-.082.217-.123.326l-.124.328-.121.325-.12.319-.117.311-.112.301-.11.291-.104.275-.097.261c-.032.081-.061.163-.091.245l-.085.223-.075.202-.069.181a3.95 3.95 0 0 1-.057.152c-.016.042-.031.085-.047.124-.013.035-.025.064-.037.1l-.025.066a.997.997 0 0 0 .602 1.304 1.007 1.007 0 0 0 1.281-.611l.516-1.46h4.142l.516 1.46c.184.52.757.792 1.28.611a.995.995 0 0 0 .614-1.273zm5.738-.604h-2.824v-7.379c0-.619-.502-1.115-1.12-1.115-.621 0-1.123.496-1.123 1.115v8.311c0 .513.419.93.938.93h4.129a.934.934 0 0 0 .937-.93.934.934 0 0 0-.937-.932zm9.063.342-3.146-4.109 2.843-2.827a.974.974 0 0 0 .001-1.385.99.99 0 0 0-1.395 0l-3.521 3.499v-2.899c0-.619-.503-1.115-1.122-1.115-.619 0-1.122.496-1.122 1.115v8.199c0 .616.503 1.115 1.122 1.115.619 0 1.122-.499 1.122-1.115v-2.53l.639-.637 2.978 3.882c.331.441.962.532 1.404.198a.987.987 0 0 0 .197-1.391zm-19.304-6.345c.016 0 .03.004.046.004l1.39 3.943h-2.829l1.393-3.947z"></path></svg>