<svg xmlns="http://www.w3.org/2000/svg" viewBox="0 0 172 21"><defs><filter id="4oyibjrx6a"><feFlood flood-color="#FFF" flood-opacity="1" result="floodOut"></feFlood><feComposite operator="atop" in="floodOut" in2="SourceGraphic" result="compOut"></feComposite><feBlend in="compOut" in2="SourceGraphic"></feBlend></filter></defs><g filter="url(#4oyibjrx6a)"><path fill-rule="evenodd" fill="#FFF" d="M171.988 17.983v2.1h-10.904c-.543 0-.856-.318-.856-.88V2.433h-2.108V.335h13.403v2.098h-9.006v6.658h7.328v2.103h-7.328v6.789h9.471zm-19.299-6.737h-10.791v8.837h-2.294V.33h2.294v8.815h10.791V.33h2.287v19.753h-2.287v-8.837zm-18.022 7.333a9.873 9.873 0 0 1-1.527.84c-.588.269-1.276.507-2.024.702-.768.194-1.618.298-2.522.298-1.485 0-2.858-.269-4.083-.805a9.274 9.274 0 0 1-3.155-2.208 10.077 10.077 0 0 1-2.013-3.288c-.474-1.244-.715-2.598-.715-4.034 0-1.413.249-2.75.73-3.979.487-1.232 1.17-2.313 2.048-3.207a9.543 9.543 0 0 1 3.12-2.116c1.194-.52 2.538-.779 3.983-.779.87 0 1.667.076 2.368.225.707.149 1.342.341 1.882.56a8.773 8.773 0 0 1 1.418.71c.38.229.69.447.932.616.383.319.436.755.143 1.227l-.251.37c-.321.418-.749.471-1.204.145a11.527 11.527 0 0 0-.792-.493 10.47 10.47 0 0 0-1.159-.554 8.246 8.246 0 0 0-1.485-.443 8.845 8.845 0 0 0-1.794-.173c-1.145 0-2.191.2-3.122.605a7.025 7.025 0 0 0-2.385 1.658 7.403 7.403 0 0 0-1.521 2.492 8.846 8.846 0 0 0-.54 3.109c0 1.131.183 2.199.54 3.182a7.802 7.802 0 0 0 1.537 2.59 7.428 7.428 0 0 0 2.416 1.764c.939.42 2.002.634 3.154.634a7.68 7.68 0 0 0 1.941-.226 10.214 10.214 0 0 0 1.61-.555 7.69 7.69 0 0 0 1.219-.666c.335-.233.621-.436.836-.596.216-.185.434-.265.645-.246.204.026.4.145.566.354l.25.299c.34.417.309.85-.077 1.243-.226.212-.545.449-.969.745zm-21.986-1.154a9.834 9.834 0 0 1-3.171 2.188c-1.22.537-2.559.808-3.987.808-1.432 0-2.765-.271-3.993-.808a9.81 9.81 0 0 1-3.168-2.188 10.02 10.02 0 0 1-2.098-3.285 10.874 10.874 0 0 1-.757-4.054c0-1.406.254-2.75.757-3.971.5-1.22 1.204-2.3 2.098-3.201A9.573 9.573 0 0 1 101.543.78c1.215-.517 2.548-.775 3.98-.775 1.428 0 2.767.258 3.987.775a9.738 9.738 0 0 1 3.171 2.134 9.721 9.721 0 0 1 2.096 3.201c.508 1.221.762 2.565.762 3.971 0 1.432-.254 2.794-.759 4.054a10.022 10.022 0 0 1-2.099 3.285zm-.098-10.475a7.692 7.692 0 0 0-1.582-2.496 7.615 7.615 0 0 0-2.422-1.658c-.924-.402-1.96-.605-3.056-.605-1.098 0-2.13.203-3.051.605a7.797 7.797 0 0 0-2.422 1.663 7.617 7.617 0 0 0-1.595 2.491c-.389.958-.577 2.019-.577 3.136 0 1.149.195 2.229.577 3.214a7.85 7.85 0 0 0 1.595 2.582 7.886 7.886 0 0 0 2.425 1.723c.918.412 1.95.621 3.048.621 1.096 0 2.127-.209 3.056-.632a7.478 7.478 0 0 0 2.422-1.712 7.882 7.882 0 0 0 1.582-2.582c.387-.985.58-2.065.58-3.214 0-1.125-.193-2.178-.58-3.136zM92.314 20.087H91.6c-.438 0-.776-.196-.964-.572l-4.064-7.574h-4.537v8.146h-2.286V2.435h-2.114v-2.1h8.179c.919 0 1.657.046 2.186.142a5.25 5.25 0 0 1 1.41.43 5.124 5.124 0 0 1 2.165 1.93c.527.841.794 1.883.794 3.096 0 1.35-.343 2.541-1.032 3.54-.643.927-1.495 1.569-2.522 1.91l.011.016.008.017.011.013a3.899 3.899 0 0 0 .336.552l.005.008.008.013 3.755 6.99c.166.305.179.565.05.779-.127.21-.362.316-.685.316zm-3.26-11.304c.645-.705.976-1.646.976-2.798 0-.73-.172-1.387-.508-1.95a3.108 3.108 0 0 0-1.403-1.257 3.355 3.355 0 0 0-.896-.259c-.339-.051-.861-.084-1.543-.084h-3.645v7.397h4.383c1.106 0 1.993-.349 2.636-1.049zM68.207 20.088h-.769c-.416 0-.75-.197-.959-.569l.011.018-6.603-8.697h-2.961v9.248h-2.289V.331h2.289v8.396h2.972L66.162.878l-.013.027c.214-.371.545-.57.966-.57h.682c.349 0 .585.11.712.331.138.223.106.495-.081.795l-.006.009-.011.008-6.603 8.228 7.006 9.265c.234.367.176.627.09.786-.136.218-.371.331-.697.331zm-19.087-.001h-.717c-.437 0-.768-.196-.966-.572l-4.056-7.574h-4.544v8.146H36.55V2.435h-2.117v-2.1h8.18c.926 0 1.654.046 2.188.142a5.228 5.228 0 0 1 1.419.43 5.19 5.19 0 0 1 2.159 1.93c.531.841.799 1.883.799 3.096 0 1.35-.349 2.549-1.04 3.54-.638.927-1.49 1.569-2.519 1.91.008.009.008.016.008.016l.013.017.005.013c.04.077.08.148.135.237.045.084.116.182.204.315l.016.008.005.013 3.75 6.99c.167.305.183.565.051.779-.136.21-.366.316-.686.316zM45.859 8.783c.644-.705.98-1.646.98-2.798 0-.73-.173-1.382-.513-1.95a3.09 3.09 0 0 0-1.406-1.257 3.35 3.35 0 0 0-.891-.259c-.349-.051-.863-.084-1.546-.084h-3.646v7.397h4.385c1.108 0 1.995-.349 2.637-1.049zM31.513 20.088h-.606c-.487 0-.818-.24-.948-.682l-2.014-5.487h-7.457c-.304.847-1.984 5.48-1.977 5.472-.135.457-.465.697-.954.697h-.578c-.326 0-.564-.091-.691-.273-.139-.181-.168-.447-.074-.794 0 0 5.503-14.909 6.894-18.683h2.242c1.015 2.757 6.898 18.695 6.898 18.695.095.339.069.608-.072.789-.127.175-.356.266-.663.266zM24.797 5.127a5.82 5.82 0 0 1-.252-.798 27.913 27.913 0 0 0-.217-.834c-.026-.11-.053-.217-.082-.33-.027.113-.058.224-.082.339-.072.243-.148.512-.252.834-.106.346-.182.575-.248.775l-2.479 6.762h6.064c-.46-1.28-2.452-6.748-2.452-6.748zM13.398 10.84a5.904 5.904 0 0 1-1.966 1.228 6.994 6.994 0 0 1-2.45.419H4.406v7.592H2.125V2.434H.011V.335h8.971a6.95 6.95 0 0 1 2.45.422c.754.288 1.422.692 1.966 1.218.551.52.979 1.168 1.281 1.896.304.737.457 1.584.457 2.495 0 .924-.153 1.771-.457 2.529a5.593 5.593 0 0 1-1.281 1.945zm-1.696-7.38c-.731-.676-1.714-1.026-2.938-1.026H4.406v7.946h4.332c1.233 0 2.233-.35 2.964-1.057.725-.704 1.083-1.69 1.083-2.957 0-1.254-.358-2.235-1.083-2.906z"></path></g></svg>