<svg xmlns="http://www.w3.org/2000/svg" width="47" height="33" viewBox="0 0 47 33"><defs><filter id="ligqo4jqpa"><feFlood flood-color="#fff" flood-opacity="1" result="floodOut"></feFlood><feComposite operator="atop" in="floodOut" in2="SourceGraphic" result="compOut"></feComposite><feBlend in="compOut" in2="SourceGraphic"></feBlend></filter></defs><g filter="url(#ligqo4jqpa)"><path fill-rule="evenodd" fill="#8F8F8F" d="M45.937 5.256c-.537-1.991-2.124-3.559-4.138-4.092-3.651-.967-18.29-.967-18.29-.967s-14.638 0-18.29.967a5.83 5.83 0 0 0-4.138 4.092C.103 8.864.103 16.394.103 16.394s0 7.532.978 11.137a5.832 5.832 0 0 0 4.138 4.092c3.652.967 18.29.967 18.29.967s14.639 0 18.29-.967a5.83 5.83 0 0 0 4.138-4.092c.98-3.605.98-11.137.98-11.137s0-7.53-.98-11.138zM18.828 23.335V9.454l12.162 6.94-12.162 6.941z"></path></g></svg>